<?xml version="1.0" encoding="utf-8"?>
<!-- Generator: Adobe Illustrator 15.0.2, SVG Export Plug-In  -->
<!DOCTYPE svg PUBLIC "-//W3C//DTD SVG 1.1//EN" "http://www.w3.org/Graphics/SVG/1.1/DTD/svg11.dtd" [
	<!ENTITY ns_flows "http://ns.adobe.com/Flows/1.0/">
]>
<svg version="1.1"
	 xmlns="http://www.w3.org/2000/svg" xmlns:xlink="http://www.w3.org/1999/xlink" xmlns:a="http://ns.adobe.com/AdobeSVGViewerExtensions/3.0/"
	 x="0px" y="0px" width="800px" height="800px" viewBox="0 0 800 800" overflow="visible" enable-background="new 0 0 800 800"
	 xml:space="preserve">
<defs>
</defs>
<circle fill="#FCE62A" cx="400" cy="400" r="400"/>
<path d="M254.634,301.902c0.239,0,0.443,0.084,0.612,0.252l1.439,1.548c-1.057,1.128-2.208,2.142-3.456,3.042
	c-1.248,0.899-2.609,1.668-4.086,2.304c-1.476,0.637-3.096,1.129-4.86,1.477c-1.764,0.348-3.702,0.521-5.813,0.521
	c-3.528,0-6.763-0.617-9.702-1.854c-2.94-1.236-5.46-2.988-7.56-5.257c-2.101-2.268-3.738-5.009-4.914-8.226
	c-1.177-3.216-1.765-6.792-1.765-10.728c0-3.864,0.606-7.393,1.818-10.584c1.212-3.192,2.916-5.935,5.112-8.227
	c2.195-2.292,4.823-4.068,7.884-5.328c3.06-1.26,6.438-1.89,10.134-1.89c1.848,0,3.54,0.139,5.076,0.414
	c1.535,0.276,2.97,0.672,4.302,1.188c1.332,0.517,2.586,1.158,3.762,1.927c1.176,0.768,2.328,1.655,3.456,2.663l-1.115,1.62
	c-0.192,0.288-0.492,0.433-0.9,0.433c-0.216,0-0.492-0.126-0.828-0.378s-0.762-0.564-1.277-0.937
	c-0.517-0.372-1.141-0.779-1.872-1.224c-0.732-0.444-1.603-0.852-2.61-1.225c-1.008-0.371-2.173-0.684-3.492-0.936
	c-1.32-0.252-2.82-0.378-4.5-0.378c-3.096,0-5.939,0.534-8.532,1.602c-2.592,1.068-4.823,2.593-6.695,4.572
	c-1.872,1.98-3.33,4.38-4.374,7.2s-1.566,5.982-1.566,9.486c0,3.6,0.516,6.816,1.548,9.647c1.032,2.832,2.46,5.227,4.284,7.182
	c1.823,1.957,3.979,3.456,6.462,4.5c2.484,1.045,5.178,1.566,8.082,1.566c1.824,0,3.45-0.12,4.878-0.36
	c1.428-0.239,2.742-0.6,3.942-1.08c1.199-0.479,2.315-1.067,3.348-1.764c1.032-0.695,2.052-1.512,3.061-2.448
	c0.119-0.096,0.233-0.174,0.342-0.233C254.363,301.933,254.489,301.902,254.634,301.902z"/>
<path d="M276.629,287.43v23.04h-3.672V259.53h12.996c5.88,0,10.271,1.134,13.176,3.401c2.904,2.269,4.356,5.599,4.356,9.99
	c0,1.944-0.337,3.721-1.008,5.328c-0.673,1.608-1.639,3.019-2.898,4.229c-1.26,1.213-2.778,2.209-4.554,2.988
	c-1.776,0.78-3.78,1.291-6.013,1.53c0.576,0.36,1.092,0.84,1.549,1.439l17.531,22.032h-3.204c-0.384,0-0.714-0.071-0.989-0.216
	c-0.276-0.144-0.547-0.384-0.811-0.72l-16.308-20.664c-0.408-0.527-0.846-0.9-1.314-1.116c-0.468-0.216-1.193-0.324-2.178-0.324
	H276.629z M276.629,284.694h8.856c2.256,0,4.277-0.271,6.065-0.811s3.3-1.313,4.536-2.322c1.236-1.008,2.179-2.219,2.826-3.636
	c0.648-1.416,0.972-3.012,0.972-4.788c0-3.623-1.188-6.312-3.563-8.063s-5.832-2.628-10.368-2.628h-9.324V284.694z"/>
<path d="M359.249,310.47h-2.844c-0.337,0-0.612-0.09-0.828-0.27c-0.216-0.181-0.385-0.414-0.504-0.702l-6.013-14.796h-25.02
	l-5.977,14.796c-0.096,0.265-0.264,0.492-0.504,0.684c-0.24,0.192-0.528,0.288-0.863,0.288h-2.809l20.844-50.939h3.673
	L359.249,310.47z M325.157,291.966h22.823l-10.403-25.74c-0.169-0.407-0.337-0.869-0.504-1.386
	c-0.169-0.516-0.337-1.062-0.504-1.638c-0.169,0.576-0.337,1.122-0.505,1.638c-0.168,0.517-0.336,0.99-0.504,1.422L325.157,291.966z
	"/>
<path d="M401.439,259.53v3.06h-26.82v21.42h23.22v3.061h-23.22v23.399h-3.708V259.53H401.439z"/>
<path d="M448.959,259.53v3.132h-17.892v47.808h-3.673v-47.808h-18v-3.132H448.959z"/>
<path d="M466.418,310.47h-3.708V259.53h3.708V310.47z"/>
<path d="M489.098,259.656c0.192,0.084,0.396,0.27,0.612,0.558l32.977,44.136c-0.072-0.72-0.108-1.415-0.108-2.088V259.53h3.24
	v50.939h-1.764c-0.553,0-0.997-0.239-1.332-0.72l-33.121-44.208c0.072,0.72,0.108,1.404,0.108,2.052v42.876h-3.204V259.53h1.8
	C488.642,259.53,488.905,259.572,489.098,259.656z"/>
<path d="M566.427,308.058c1.751,0,3.348-0.09,4.788-0.27c1.439-0.18,2.777-0.45,4.014-0.811c1.235-0.359,2.412-0.797,3.528-1.313
	c1.115-0.516,2.237-1.098,3.365-1.746v-13.716h-9.792c-0.264,0-0.485-0.084-0.666-0.252c-0.18-0.168-0.27-0.36-0.27-0.576v-2.016
	h14.076v18.107c-1.272,0.889-2.592,1.681-3.96,2.376c-1.368,0.696-2.832,1.278-4.393,1.746c-1.56,0.468-3.239,0.828-5.04,1.08
	c-1.8,0.252-3.768,0.378-5.903,0.378c-3.672,0-7.026-0.617-10.062-1.854s-5.64-2.988-7.812-5.257
	c-2.173-2.268-3.858-5.009-5.059-8.226c-1.2-3.216-1.8-6.792-1.8-10.728c0-3.937,0.6-7.507,1.8-10.711
	c1.2-3.203,2.904-5.939,5.112-8.207c2.208-2.269,4.89-4.021,8.046-5.257c3.155-1.235,6.689-1.854,10.603-1.854
	c1.943,0,3.737,0.132,5.382,0.396c1.644,0.265,3.174,0.654,4.59,1.17c1.416,0.517,2.736,1.152,3.96,1.908s2.399,1.626,3.528,2.61
	l-0.973,1.584c-0.216,0.36-0.516,0.54-0.899,0.54c-0.216,0-0.421-0.048-0.612-0.145c-0.36-0.144-0.882-0.479-1.566-1.008
	c-0.684-0.527-1.607-1.08-2.771-1.656c-1.164-0.575-2.622-1.092-4.374-1.548c-1.752-0.455-3.876-0.684-6.372-0.684
	c-3.312,0-6.3,0.528-8.964,1.584c-2.664,1.057-4.938,2.568-6.822,4.536s-3.336,4.368-4.355,7.2c-1.021,2.832-1.53,6.012-1.53,9.54
	c0,3.6,0.516,6.828,1.548,9.684c1.031,2.856,2.478,5.274,4.338,7.254c1.859,1.98,4.092,3.498,6.696,4.554
	C560.408,307.53,563.282,308.058,566.427,308.058z"/>
<path d="M89.765,390.68V349.4h16v-25.6l64-16v41.6h22.08v41.28h-22.08v72.961c5.545,1.068,11.84,1.814,18.88,2.24l-2.88,47.039
	c-29.23,0-48.215-1.6-56.96-4.801c-10.88-3.84-17.71-8.959-20.48-15.359c-1.71-3.84-2.56-8.32-2.56-13.439V390.68H89.765z"/>
<path d="M235.684,492.76l-35.84-143.36h64l17.601,104h3.199l17.601-104h64l-40,160c-5.976,20.904-13.44,34.93-22.4,42.08
	c-8.96,7.145-21.87,10.719-38.72,10.719h-62.08v-41.6l30.08-5.76c15.36-3.414,25.385-7.25,30.08-11.52
	c2.56-2.346,4.689-5.225,6.399-8.641l-0.319-1.92H235.684z"/>
<path d="M375.841,349.4h32l11.84,16c9.385-13.865,26.77-20.8,52.16-20.8c13.01,0,24.209,2.455,33.6,7.359
	c9.385,4.91,16.529,11.631,21.439,20.16c9.17,16,13.76,35.095,13.76,57.281c0,27.094-5.869,47.574-17.6,61.439
	c-4.695,5.336-10.99,9.76-18.879,13.279c-7.896,3.521-17.07,5.281-27.521,5.281h-36.799v48l-64,4.799V349.4z M439.841,403.16v64.32
	h9.92c7.68,0,13.279-0.801,16.799-2.4c3.521-1.6,5.281-5.279,5.281-11.041V391.32h-9.92c-4.695,0-8.43,0.215-11.201,0.639
	c-2.773,0.432-5.229,1.551-7.359,3.361C441.226,397.135,440.05,399.75,439.841,403.16z"/>
<path d="M615.836,455v11.199c6.399,0.641,12.8,0.961,19.199,0.961c19.841,0,39.891-3.201,60.16-9.6l7.681,47.039
	c-23.896,6.4-47.575,9.6-71.04,9.6c-29.87,0-51.471-6.984-64.801-20.959c-13.335-13.971-20-35.25-20-63.84
	c0-28.586,6.665-49.865,20-63.84c13.33-13.97,34.881-20.96,64.641-20.96s50.29,4.055,61.6,12.16
	c11.305,8.109,16.96,23.255,16.96,45.439c0,18.775-6.774,32.271-20.319,40.48C676.365,450.895,651.676,455,615.836,455z
	 M615.836,404.76v13.121h13.119c7.681,0,13.28-0.801,16.801-2.4c3.52-1.6,5.279-5.281,5.279-11.041V391.32h-13.119
	c-7.681,0-13.28,0.799-16.801,2.4C617.596,395.32,615.836,399,615.836,404.76z"/>
</svg>
