<?xml version="1.0" encoding="utf-8"?>
<!-- Generator: Adobe Illustrator 15.0.2, SVG Export Plug-In  -->
<!DOCTYPE svg PUBLIC "-//W3C//DTD SVG 1.1//EN" "http://www.w3.org/Graphics/SVG/1.1/DTD/svg11.dtd" [
	<!ENTITY ns_flows "http://ns.adobe.com/Flows/1.0/">
]>
<svg version="1.1"
	 xmlns="http://www.w3.org/2000/svg" xmlns:xlink="http://www.w3.org/1999/xlink" xmlns:a="http://ns.adobe.com/AdobeSVGViewerExtensions/3.0/"
	 x="0px" y="0px" width="180px" height="30px" viewBox="0.487 0.648 180 30"
	 overflow="visible" enable-background="new 0.487 0.648 180 30" xml:space="preserve">
<defs>
</defs>
<rect x="0.487" y="0.648" display="none" fill="#222120" width="180" height="30"/>
<path fill="#FFFFFF" d="M14.434,7.656l2.289,11.24h0.249l1.632-9.518h-1.812V6.546h6.774v2.832h-1.563L19.465,21.32
	c-0.204,0.883-0.59,1.156-1.474,1.156h-2.561c-0.884,0-1.291-0.295-1.45-1.18l-2.084-10.038H11.67L9.607,21.296
	c-0.158,0.885-0.566,1.18-1.45,1.18H5.574c-0.884,0-1.269-0.273-1.473-1.156L1.563,9.378H0V6.546h7.047v2.832H5.234l1.632,9.518
	h0.271l2.289-11.24C9.585,6.772,10.016,6.5,10.877,6.5h2.106C13.845,6.5,14.275,6.772,14.434,7.656z"/>
<path fill="#FFFFFF" d="M33.708,6.546c1.519,0,2.107,0.204,2.651,0.748c0.861,0.838,1.269,2.311,1.269,7.183
	c0,4.849-0.407,6.322-1.269,7.183c-0.544,0.543-1.133,0.748-2.651,0.748H28.36c-1.495,0-2.107-0.205-2.65-0.748
	c-0.861-0.861-1.27-2.334-1.27-7.183c0-4.872,0.408-6.345,1.27-7.183c0.543-0.544,1.155-0.748,2.65-0.748H33.708z M28.497,19.257
	c0.158,0.158,0.34,0.205,1.042,0.205h3.014c0.68,0,0.884-0.047,1.02-0.205c0.204-0.182,0.295-0.77,0.295-4.781
	c0-4.033-0.091-4.6-0.295-4.804c-0.136-0.136-0.34-0.182-1.02-0.182h-3.014c-0.702,0-0.884,0.046-1.042,0.182
	c-0.182,0.204-0.295,0.771-0.295,4.804C28.202,18.509,28.315,19.076,28.497,19.257z"/>
<path fill="#FFFFFF" d="M52.337,19.529h1.677v2.879H50.75c-0.951,0-1.291-0.158-1.563-0.432c-0.34-0.34-0.521-0.928-0.611-3.828
	c-0.046-1.225-0.159-1.564-0.408-1.836c-0.294-0.271-0.611-0.363-1.404-0.363H44.27v3.604h1.949v2.855h-7.387v-2.855h1.903V9.378
	h-1.903V6.546h10.219c1.201,0,1.994,0.204,2.538,0.748c0.657,0.656,0.906,1.473,0.906,3.647c0,2.81-0.702,3.422-2.538,3.739v0.045
	c1.632,0.34,2.243,0.907,2.312,3.217C52.269,18.419,52.313,19.054,52.337,19.529z M47.465,13.298c0.657,0,0.884-0.045,1.02-0.181
	c0.204-0.204,0.271-0.544,0.271-1.768s-0.067-1.586-0.271-1.812c-0.136-0.113-0.362-0.182-1.02-0.182H44.27v3.942H47.465z"/>
<path fill="#FFFFFF" d="M62.235,15.609h-1.563v3.967h1.768v2.832h-7.205v-2.855h1.903V9.378h-1.903V6.546h7.205v2.81h-1.768v3.58
	h1.632l3.285-3.603h-1.631V6.546h7.001v2.832h-1.518l-4.328,4.6l4.486,5.575h1.541v2.855h-7.296v-2.811h1.563L62.235,15.609z"/>
<path fill="#FFFFFF" d="M119.863,19.552v2.855h-7.613v-2.855h2.039V9.333h-2.583v3.014h-2.991V6.546h14.684v5.801h-2.991V9.333
	h-2.583v10.219H119.863z"/>
<path fill="#FFFFFF" d="M133.716,9.378V6.546h7.229v2.832h-1.858v6.549c0,3.738-0.295,4.713-1.155,5.551
	c-0.726,0.725-1.723,0.93-3.784,0.93h-2.833c-2.062,0-3.036-0.205-3.738-0.906c-0.861-0.861-1.156-1.812-1.156-5.574V9.378h-1.857
	V6.546h7.273v2.832h-1.858v6.911c0,2.176,0.159,2.629,0.408,2.879c0.227,0.227,0.635,0.295,1.903,0.295h1.042
	c1.224,0,1.632-0.068,1.858-0.295c0.271-0.271,0.385-0.68,0.385-2.879V9.378H133.716z"/>
<path fill="#FFFFFF" d="M155.692,19.529h1.677v2.879h-3.264c-0.951,0-1.291-0.158-1.563-0.432c-0.34-0.34-0.521-0.928-0.611-3.828
	c-0.046-1.225-0.159-1.564-0.408-1.836c-0.294-0.271-0.611-0.363-1.404-0.363h-2.493v3.604h1.949v2.855h-7.387v-2.855h1.903V9.378
	h-1.903V6.546h10.219c1.201,0,1.994,0.204,2.538,0.748c0.657,0.656,0.906,1.473,0.906,3.647c0,2.81-0.702,3.422-2.538,3.739v0.045
	c1.632,0.34,2.243,0.907,2.312,3.217C155.624,18.419,155.669,19.054,155.692,19.529z M150.82,13.298c0.657,0,0.884-0.045,1.02-0.181
	c0.204-0.204,0.271-0.544,0.271-1.768s-0.067-1.586-0.271-1.812c-0.136-0.113-0.362-0.182-1.02-0.182h-3.195v3.942H150.82z"/>
<path fill="#FFFFFF" d="M170.091,9.378h-1.835V6.546h6.934v2.832h-1.858v13.03h-3.376c-0.861,0-1.11-0.205-1.473-0.953
	l-4.781-10.038h-0.227v8.135h1.903v2.855h-7.047v-2.855h1.903V9.378h-1.903V6.546h5.664c0.839,0,1.088,0.204,1.474,0.951
	l4.396,9.292h0.227V9.378z"/>
<path fill="#FEE800" d="M92.674,0c2.507,0,3.78,0.398,4.576,1.193c1.154,1.154,1.513,2.707,1.513,7.164h-5.811
	c-0.039-2.587-0.159-3.104-0.397-3.344c-0.199-0.238-0.558-0.318-1.354-0.318h-1.273c-0.995,0-1.313,0.12-1.552,0.358
	c-0.278,0.278-0.318,0.836-0.318,2.587c0,1.193,0.119,1.87,0.358,2.388c0.238,0.558,0.875,1.393,1.87,2.507l2.945,3.343h0.278
	l2.706-4.337h6.367v4.894h-3.145l-2.348,3.582l2.706,2.904h3.184v4.936h-6.686l-2.666-2.984h-0.278l-0.159,0.277
	c-1.233,1.871-2.269,2.746-4.735,2.746h-4.378c-2.468,0-3.82-0.357-4.895-1.432c-1.194-1.195-1.672-2.826-1.672-7.125
	c0-3.58,0.159-4.655,1.354-5.849c0.637-0.597,1.83-1.233,3.78-1.592c-0.478-1.114-0.717-2.428-0.717-4.496
	c0-3.383,0.358-4.936,1.513-6.089C84.356,0.398,85.591,0,88.376,0H92.674z M89.411,21.927l0.637-0.916l-4.338-5.014l-0.955,0.238
	c-0.478,0.119-0.876,0.318-1.114,0.557c-0.239,0.279-0.358,0.717-0.358,2.588c0,2.188,0.159,2.945,0.518,3.303
	c0.278,0.357,0.875,0.438,2.109,0.438h1.074C88.217,23.121,88.734,22.921,89.411,21.927z"/>
</svg>
